<?xml version="1.0" encoding="UTF-8" standalone="no"?>
<!-- Created with Inkscape (http://www.inkscape.org/) -->

<svg
   xmlns:dc="http://purl.org/dc/elements/1.1/"
   xmlns:cc="http://creativecommons.org/ns#"
   xmlns:rdf="http://www.w3.org/1999/02/22-rdf-syntax-ns#"
   xmlns:svg="http://www.w3.org/2000/svg"
   xmlns="http://www.w3.org/2000/svg"
   xmlns:sodipodi="http://sodipodi.sourceforge.net/DTD/sodipodi-0.dtd"
   xmlns:inkscape="http://www.inkscape.org/namespaces/inkscape"
   width="132.29167mm"
   height="132.29167mm"
   viewBox="0 0 132.29167 132.29167"
   version="1.1"
   id="svg8"
   inkscape:version="0.92.4 (5da689c313, 2019-01-14)"
   sodipodi:docname="logo-github.svg">
  <defs
     id="defs2" />
  <sodipodi:namedview
     id="base"
     pagecolor="#ffffff"
     bordercolor="#666666"
     borderopacity="1.0"
     inkscape:pageopacity="0.0"
     inkscape:pageshadow="2"
     inkscape:zoom="0.35"
     inkscape:cx="195.18823"
     inkscape:cy="166.43616"
     inkscape:document-units="mm"
     inkscape:current-layer="layer1"
     showgrid="false"
     fit-margin-top="0"
     fit-margin-left="0"
     fit-margin-right="0"
     fit-margin-bottom="0"
     inkscape:pagecheckerboard="true"
     inkscape:window-width="1366"
     inkscape:window-height="705"
     inkscape:window-x="-8"
     inkscape:window-y="-8"
     inkscape:window-maximized="1"
     inkscape:snap-global="false" />
  <metadata
     id="metadata5">
    <rdf:RDF>
      <cc:Work
         rdf:about="">
        <dc:format>image/svg+xml</dc:format>
        <dc:type
           rdf:resource="http://purl.org/dc/dcmitype/StillImage" />
        <dc:title></dc:title>
      </cc:Work>
    </rdf:RDF>
  </metadata>
  <g
     inkscape:label="Capa 1"
     inkscape:groupmode="layer"
     id="layer1"
     transform="translate(-41.229041,-64.504874)">
    <path
       style="fill:#000000;stroke-width:0.25877744"
       d="M 101.94471,196.65165 C 76.106954,194.29968 54.215471,177.66011 45.26313,153.56834 40.997857,142.09001 40.06284,128.55745 42.706544,116.56675 50.614897,80.69788 86.16092,58.085762 121.99346,66.129458 c 23.36226,5.244359 42.27816,23.10993 49.01911,46.297262 3.6355,12.50529 3.30369,27.08091 -0.89692,39.39887 -8.05696,23.62645 -28.54682,40.67577 -53.27222,44.32707 -3.90368,0.57649 -11.31908,0.82483 -14.89872,0.49899 z m -8.710007,-17.76649 c 0.09322,-1.94374 0.169523,-4.69279 0.169523,-6.10899 v -2.57491 l -0.970512,0.14937 c -6.857535,1.05544 -11.643009,0.0671 -15.080267,-3.11459 l -1.533203,-1.4192 -1.426608,-2.96664 c -2.189598,-4.55329 -3.428975,-6.14545 -6.231558,-8.00534 -0.804811,-0.5341 -1.593286,-1.25633 -1.752164,-1.60496 l -0.28887,-0.63388 0.492127,-0.35978 c 0.292107,-0.21356 1.129448,-0.35971 2.06018,-0.35959 2.976961,5.2e-4 6.219482,2.1693 8.670979,5.79997 3.701883,5.48252 8.569114,6.89109 15.179521,4.39292 l 1.060639,-0.40082 0.56678,-1.36718 c 0.665074,-1.6043 1.345173,-2.30413 3.051392,-3.13993 l 1.248209,-0.61144 -0.666102,-0.008 C 95.013823,156.51858 87.95841,154.65252 83.904444,152.88115 73.627985,148.3906 66.826256,138.6553 66.30647,127.69292 c -0.289281,-6.10097 1.253027,-9.68644 6.414332,-14.91168 2.195153,-2.22235 2.940248,-3.13553 2.784867,-3.41313 -1.509457,-2.69672 -1.355646,-10.053128 0.302861,-14.485026 l 0.55192,-1.474854 h 1.129096 c 3.200158,0 8.505481,1.883085 13.130117,4.660418 l 3.038491,1.824768 1.749356,-0.514906 c 6.3621,-1.87265 18.00914,-1.942838 25.03514,-0.150869 l 2.33566,0.595705 1.56845,-0.98118 c 4.6218,-2.891294 10.32041,-5.143207 13.58056,-5.366613 l 1.98629,-0.136123 0.17205,1.263478 c 0.0946,0.694911 0.24322,4.407312 0.33021,8.249802 l 0.15814,6.9863 1.34848,1.55252 c 5.58762,6.43305 7.76961,13.80575 6.51486,22.01294 -1.97756,12.93509 -10.94031,20.83053 -25.97887,22.88525 l -2.38202,0.32546 1.39562,1.37322 c 2.39768,2.35923 3.34094,4.9836 3.61937,10.06989 0.4581,8.36842 0.71556,12.45724 0.80194,12.73596 0.18048,0.58236 4.89693,-1.45858 8.89648,-3.84977 24.42908,-14.60518 33.38267,-45.14375 20.66085,-70.46926 -7.76198,-15.451867 -22.35168,-26.119249 -39.69174,-29.02094 -3.95216,-0.661356 -12.80666,-0.661356 -16.758824,0 -23.269809,3.89397 -40.93562,21.555695 -44.846888,44.83651 -0.647684,3.85517 -0.64743,13.05231 4.66e-4,16.77612 3.065421,17.61881 13.617423,31.93956 29.286596,39.74661 2.944264,1.46696 8.320289,3.5633 9.21207,3.59216 l 0.412779,0.0134 0.169524,-3.53406 z"
       id="path826"
       inkscape:connector-curvature="0" />
  </g>
</svg>
