<?xml version="1.0" encoding="UTF-8" standalone="no"?>
<!-- Created with Inkscape (http://www.inkscape.org/) -->

<svg
   xmlns:dc="http://purl.org/dc/elements/1.1/"
   xmlns:cc="http://creativecommons.org/ns#"
   xmlns:rdf="http://www.w3.org/1999/02/22-rdf-syntax-ns#"
   xmlns:svg="http://www.w3.org/2000/svg"
   xmlns="http://www.w3.org/2000/svg"
   xmlns:xlink="http://www.w3.org/1999/xlink"
   xmlns:sodipodi="http://sodipodi.sourceforge.net/DTD/sodipodi-0.dtd"
   xmlns:inkscape="http://www.inkscape.org/namespaces/inkscape"
   width="52.916664mm"
   height="52.916668mm"
   viewBox="0 0 52.916664 52.916668"
   version="1.1"
   id="svg8"
   inkscape:export-filename="D:\angel\Descargas\para GH\twitter-02.png"
   inkscape:export-xdpi="100"
   inkscape:export-ydpi="100"
   sodipodi:docname="logomail.svg"
   inkscape:version="0.92.4 (5da689c313, 2019-01-14)">
  <defs
     id="defs2">
    <linearGradient
       inkscape:collect="always"
       id="linearGradient854">
      <stop
         style="stop-color:#092d4d;stop-opacity:1"
         offset="0"
         id="stop850" />
      <stop
         style="stop-color:#1773c6;stop-opacity:1"
         offset="1"
         id="stop852" />
    </linearGradient>
    <linearGradient
       inkscape:collect="always"
       xlink:href="#linearGradient854"
       id="linearGradient856"
       x1="127.97253"
       y1="128.66771"
       x2="90.287537"
       y2="84.033676"
       gradientUnits="userSpaceOnUse" />
  </defs>
  <sodipodi:namedview
     id="base"
     pagecolor="#ffffff"
     bordercolor="#666666"
     borderopacity="1.0"
     inkscape:pageopacity="0.0"
     inkscape:pageshadow="2"
     inkscape:zoom="0.98994949"
     inkscape:cx="-69.118105"
     inkscape:cy="103.39105"
     inkscape:document-units="mm"
     inkscape:current-layer="layer1"
     showgrid="false"
     fit-margin-top="0"
     fit-margin-left="0"
     fit-margin-right="0"
     fit-margin-bottom="0"
     inkscape:pagecheckerboard="true"
     inkscape:window-width="1366"
     inkscape:window-height="705"
     inkscape:window-x="-8"
     inkscape:window-y="-8"
     inkscape:window-maximized="1"
     inkscape:snap-global="false" />
  <metadata
     id="metadata5">
    <rdf:RDF>
      <cc:Work
         rdf:about="">
        <dc:format>image/svg+xml</dc:format>
        <dc:type
           rdf:resource="http://purl.org/dc/dcmitype/StillImage" />
        <dc:title></dc:title>
      </cc:Work>
    </rdf:RDF>
  </metadata>
  <g
     inkscape:label="Capa 1"
     inkscape:groupmode="layer"
     id="layer1"
     transform="translate(-82.536716,-83.501842)">
    <path
       style="fill:url(#linearGradient856);fill-opacity:1;stroke-width:0.08966278"
       d="m 107.74113,136.38135 c -4.80946,-0.29659 -9.169313,-1.71015 -13.11021,-4.25066 -1.80013,-1.16046 -3.977522,-2.96752 -4.914474,-4.07862 -0.245999,-0.29173 -0.596935,-0.69253 -0.779857,-0.89068 -2.053471,-2.22433 -3.970751,-5.67197 -5.144678,-9.25108 -3.64766,-11.12112 0.86714,-23.720043 10.7876,-30.103683 7.974479,-5.13145 17.787659,-5.71177 26.120469,-1.54469 1.92573,0.96303 4.19789,2.45096 5.37695,3.52115 0.27343,0.24817 0.75419,0.67006 1.06836,0.93753 0.52926,0.4506 1.45901,1.46574 2.58134,2.8184 2.21624,2.67106 4.26142,6.948463 5.08816,10.641633 1.55014,6.9247 0.25456,14.10981 -3.62985,20.13062 -1.16026,1.79838 -2.96688,3.97375 -4.08025,4.91309 -0.29185,0.24621 -0.88724,0.76032 -1.32309,1.14243 -0.75392,0.66098 -1.98593,1.51894 -3.47236,2.41812 -4.05816,2.4549 -9.85863,3.88687 -14.56811,3.59644 z m 13.96776,-15.53823 c 0.26467,-6e-5 -0.15757,-0.55117 -1.64841,-2.15149 -0.94161,-1.01075 -2.31726,-2.49325 -3.05702,-3.29445 -0.73975,-0.8012 -1.37504,-1.45673 -1.41175,-1.45673 -0.0367,0 -0.25026,-0.23195 -0.47455,-0.51546 -0.49657,-0.62764 -2.1729,-2.35317 -2.28609,-2.35317 -0.10377,0 -1.24573,0.61829 -2.38361,1.29056 -1.15327,0.68137 -1.21926,0.68037 -2.49333,-0.0378 -1.30026,-0.73293 -1.79144,-0.97753 -1.96996,-0.98104 -0.0785,-0.002 -1.11069,0.89477 -2.29378,1.99179 -1.18309,1.09704 -2.63028,2.43835 -3.21597,2.98071 -0.585693,0.54234 -1.491739,1.38948 -2.013432,1.88254 -0.521693,0.49304 -1.28033,1.19165 -1.685858,1.55246 -0.769106,0.68427 -0.847879,0.8252 -0.570032,1.01974 l 0.167297,0.11714 12.634615,-0.0224 c 6.94904,-0.0123 12.66489,-0.0224 12.70188,-0.0224 z m 0.96407,-9.15759 v -6.17732 l -0.15093,-0.0579 c -0.0876,-0.0336 -0.32282,0.037 -0.56051,0.16826 -0.61755,0.34099 -2.83469,1.64383 -4.41244,2.59285 -0.77117,0.46386 -1.6691,0.99907 -1.99539,1.18936 -0.68657,0.40038 -0.70988,0.48799 -0.2629,0.98783 0.47225,0.52812 6.5703,7.13175 6.86864,7.43811 l 0.24895,0.25565 0.13229,-0.10975 0.13229,-0.10974 z m -25.446773,4.74257 c 0.596521,-0.55468 1.534516,-1.43208 2.084431,-1.94978 0.549919,-0.51769 1.491332,-1.37944 2.092022,-1.91499 0.60069,-0.53554 1.09217,-1.00036 1.09217,-1.03292 0,-0.0326 0.30267,-0.31167 0.67261,-0.62027 0.89379,-0.74558 0.88696,-0.78474 -0.24663,-1.41498 -0.50557,-0.28109 -1.76671,-1.0034 -2.80252,-1.60514 -1.03581,-0.60174 -2.307035,-1.32654 -2.82494,-1.61068 -0.517906,-0.28414 -0.98987,-0.55554 -1.048811,-0.60312 -0.05894,-0.0476 -0.190726,-0.0733 -0.292856,-0.0572 l -0.18569,0.0293 8.9e-5,5.82692 c 6.4e-5,3.2048 7.63e-4,5.85717 0.0013,5.89415 0.0051,0.2692 0.501132,-0.0509 1.458707,-0.94127 z m 13.825693,-6.88024 c 0.97795,-0.59167 1.79809,-1.07575 1.82254,-1.07575 0.0436,0 2.66411,-1.54862 6.30268,-3.72468 1.01208,-0.60527 2.21268,-1.29084 2.668,-1.52347 l 0.82786,-0.42296 v -1.60776 c 0,-1.638353 -0.0411,-1.874303 -0.3561,-2.042793 -0.11614,-0.0622 -4.41987,-0.0927 -13.15505,-0.0932 l -12.982436,-7.6e-4 -0.217438,0.21735 -0.217436,0.21736 0.0076,1.731103 0.0076,1.73111 0.968607,0.52854 c 0.532734,0.29071 1.493242,0.84066 2.134458,1.22213 0.641217,0.38145 1.529055,0.88793 1.972975,1.1255 0.44392,0.23755 1.473,0.82255 2.28686,1.29997 0.81385,0.47742 1.92365,1.11118 2.46621,1.40835 0.54257,0.29718 1.57166,0.88647 2.28686,1.30956 0.7152,0.42308 1.32237,0.7708 1.34925,0.77272 0.0269,0.002 0.84903,-0.48061 1.82698,-1.07226 z"
       id="path848"
       inkscape:connector-curvature="0" />
  </g>
</svg>
